<svg width="40" height="40" viewBox="0 0 40 40" fill="none" xmlns="http://www.w3.org/2000/svg">
<circle cx="20" cy="20" r="20" fill="#E8E8E8"/>
<circle cx="22.1268" cy="25.1268" r="1.12676" fill="#0A0A0A"/>
<circle cx="31.1268" cy="25.1268" r="1.12676" fill="#0A0A0A"/>
<path d="M30.2907 29C30.6824 29 31.0093 29.3247 30.8903 29.6979C30.8414 29.8512 30.7763 30.0017 30.6955 30.1481C30.4945 30.512 30.1999 30.8427 29.8284 31.1213C29.457 31.3999 29.016 31.6209 28.5307 31.7716C28.0454 31.9224 27.5253 32 27 32C26.4747 32 25.9546 31.9224 25.4693 31.7716C24.984 31.6209 24.543 31.3999 24.1716 31.1213C23.8001 30.8427 23.5055 30.512 23.3045 30.1481C23.2237 30.0017 23.1586 29.8512 23.1097 29.6979C22.9907 29.3247 23.3176 29 23.7093 29V29C24.1011 29 24.4087 29.333 24.5846 29.683C24.5944 29.7024 24.6045 29.7217 24.6151 29.7409C24.7449 29.9758 24.935 30.1892 25.1747 30.369C25.4144 30.5487 25.699 30.6914 26.0122 30.7886C26.3253 30.8859 26.661 30.936 27 30.936C27.339 30.936 27.6747 30.8859 27.9878 30.7886C28.301 30.6914 28.5856 30.5487 28.8253 30.369C29.065 30.1892 29.2551 29.9758 29.3849 29.7409C29.3955 29.7217 29.4056 29.7024 29.4154 29.683C29.5913 29.333 29.8989 29 30.2907 29V29Z" fill="#0A0A0A"/>
</svg>
