<svg width="40" height="40" viewBox="0 0 40 40" fill="none" xmlns="http://www.w3.org/2000/svg">
<circle cx="20" cy="20" r="20" fill="#E8E8E8"/>
<path d="M30.2907 29C30.6824 29 31.0093 29.3247 30.8903 29.6979C30.8414 29.8512 30.7763 30.0017 30.6955 30.1481C30.4945 30.512 30.1999 30.8427 29.8284 31.1213C29.457 31.3999 29.016 31.6209 28.5307 31.7716C28.0454 31.9224 27.5253 32 27 32C26.4747 32 25.9546 31.9224 25.4693 31.7716C24.984 31.6209 24.543 31.3999 24.1716 31.1213C23.8001 30.8427 23.5055 30.512 23.3045 30.1481C23.2237 30.0017 23.1586 29.8512 23.1097 29.6979C22.9907 29.3247 23.3176 29 23.7093 29V29C24.1011 29 24.4087 29.333 24.5846 29.683C24.5944 29.7024 24.6045 29.7217 24.6151 29.7409C24.7449 29.9758 24.935 30.1892 25.1747 30.369C25.4144 30.5487 25.699 30.6914 26.0122 30.7886C26.3253 30.8859 26.661 30.936 27 30.936C27.339 30.936 27.6747 30.8859 27.9878 30.7886C28.301 30.6914 28.5856 30.5487 28.8253 30.369C29.065 30.1892 29.2551 29.9758 29.3849 29.7409C29.3955 29.7217 29.4056 29.7024 29.4154 29.683C29.5913 29.333 29.8989 29 30.2907 29V29Z" fill="#0A0A0A"/>
<path d="M25.4 25.5C25.7314 25.5 26.0071 25.2276 25.9283 24.9057C25.8982 24.7824 25.8585 24.6612 25.8097 24.5433C25.6841 24.24 25.4999 23.9644 25.2678 23.7322C25.0356 23.5001 24.76 23.3159 24.4567 23.1903C24.1534 23.0647 23.8283 23 23.5 23C23.1717 23 22.8466 23.0647 22.5433 23.1903C22.24 23.3159 21.9644 23.5001 21.7322 23.7322C21.5001 23.9644 21.3159 24.24 21.1903 24.5433C21.1415 24.6612 21.1018 24.7824 21.0717 24.9057C20.9929 25.2276 21.2686 25.5 21.6 25.5L21.6895 25.5C21.9714 25.5 22.1911 25.263 22.299 25.0025V25.0025C22.3643 24.8448 22.46 24.7015 22.5808 24.5808C22.7015 24.46 22.8448 24.3643 23.0025 24.299C23.1602 24.2336 23.3293 24.2 23.5 24.2C23.6707 24.2 23.8398 24.2336 23.9975 24.299C24.1552 24.3643 24.2985 24.46 24.4192 24.5808C24.54 24.7015 24.6357 24.8448 24.701 25.0025V25.0025C24.8089 25.263 25.0286 25.5 25.3105 25.5H25.4Z" fill="#0A0A0A"/>
<path d="M33.4 25.5C33.7314 25.5 34.0071 25.2276 33.9283 24.9057C33.8982 24.7824 33.8585 24.6612 33.8097 24.5433C33.6841 24.24 33.4999 23.9644 33.2678 23.7322C33.0356 23.5001 32.76 23.3159 32.4567 23.1903C32.1534 23.0647 31.8283 23 31.5 23C31.1717 23 30.8466 23.0647 30.5433 23.1903C30.24 23.3159 29.9644 23.5001 29.7322 23.7322C29.5001 23.9644 29.3159 24.24 29.1903 24.5433C29.1415 24.6612 29.1018 24.7824 29.0717 24.9057C28.9929 25.2276 29.2686 25.5 29.6 25.5L29.6895 25.5C29.9714 25.5 30.1911 25.263 30.299 25.0025V25.0025C30.3643 24.8448 30.46 24.7015 30.5808 24.5808C30.7015 24.46 30.8448 24.3643 31.0025 24.299C31.1602 24.2336 31.3293 24.2 31.5 24.2C31.6707 24.2 31.8398 24.2336 31.9975 24.299C32.1552 24.3643 32.2985 24.46 32.4192 24.5808C32.54 24.7015 32.6357 24.8448 32.701 25.0025V25.0025C32.8089 25.263 33.0286 25.5 33.3105 25.5H33.4Z" fill="#0A0A0A"/>
</svg>
