<svg width="100" height="100" viewBox="0 0 100 100" fill="none" xmlns="http://www.w3.org/2000/svg">
<circle cx="50" cy="50" r="50" fill="#E8E8E8"/>
<circle cx="55.3169" cy="62.8169" r="2.8169" fill="#0A0A0A"/>
<circle cx="77.8169" cy="62.8169" r="2.8169" fill="#0A0A0A"/>
<path d="M75.7267 77.5C76.7061 77.5 77.5232 76.6883 77.2256 75.7552C77.1034 75.3719 76.9408 74.9956 76.7388 74.6299C76.2362 73.7199 75.4997 72.8931 74.5711 72.1967C73.6425 71.5003 72.5401 70.9478 71.3268 70.5709C70.1136 70.194 68.8132 70 67.5 70C66.1868 70 64.8864 70.194 63.6732 70.5709C62.4599 70.9478 61.3575 71.5003 60.4289 72.1967C59.5003 72.8931 58.7638 73.7199 58.2612 74.6299C58.0592 74.9956 57.8966 75.3719 57.7744 75.7552C57.4768 76.6883 58.2939 77.5 59.2733 77.5V77.5C60.2527 77.5 61.0217 76.6675 61.4615 75.7925C61.4859 75.744 61.5114 75.6958 61.5378 75.6478C61.8622 75.0606 62.3375 74.527 62.9368 74.0776C63.536 73.6281 64.2474 73.2716 65.0304 73.0284C65.8134 72.7852 66.6525 72.66 67.5 72.66C68.3475 72.66 69.1866 72.7852 69.9696 73.0284C70.7526 73.2716 71.464 73.6281 72.0632 74.0776C72.6625 74.527 73.1378 75.0606 73.4622 75.6478C73.4886 75.6958 73.5141 75.744 73.5385 75.7925C73.9783 76.6675 74.7473 77.5 75.7267 77.5V77.5Z" fill="#0A0A0A"/>
</svg>
