<svg width="40" height="40" viewBox="0 0 40 40" fill="none" xmlns="http://www.w3.org/2000/svg">
<circle cx="20" cy="20" r="20" fill="#0A0A0A"/>
<circle cx="22.1268" cy="25.1268" r="1.12676" fill="#E8E8E8"/>
<circle cx="31.1268" cy="25.1268" r="1.12676" fill="#E8E8E8"/>
<path d="M30.2907 31C30.6824 31 31.0093 30.6753 30.8903 30.3021C30.8414 30.1488 30.7763 29.9983 30.6955 29.8519C30.4945 29.488 30.1999 29.1573 29.8284 28.8787C29.457 28.6001 29.016 28.3791 28.5307 28.2284C28.0454 28.0776 27.5253 28 27 28C26.4747 28 25.9546 28.0776 25.4693 28.2284C24.984 28.3791 24.543 28.6001 24.1716 28.8787C23.8001 29.1573 23.5055 29.488 23.3045 29.8519C23.2237 29.9983 23.1586 30.1488 23.1097 30.3021C22.9907 30.6753 23.3176 31 23.7093 31V31C24.1011 31 24.4087 30.667 24.5846 30.317C24.5944 30.2976 24.6045 30.2783 24.6151 30.2591C24.7449 30.0242 24.935 29.8108 25.1747 29.631C25.4144 29.4513 25.699 29.3086 26.0122 29.2114C26.3253 29.1141 26.661 29.064 27 29.064C27.339 29.064 27.6747 29.1141 27.9878 29.2114C28.301 29.3086 28.5856 29.4513 28.8253 29.631C29.065 29.8108 29.2551 30.0242 29.3849 30.2591C29.3955 30.2783 29.4056 30.2976 29.4154 30.317C29.5913 30.667 29.8989 31 30.2907 31V31Z" fill="#E8E8E8"/>
</svg>
