<svg width="100" height="100" viewBox="0 0 100 100" fill="none" xmlns="http://www.w3.org/2000/svg">
<circle cx="50" cy="50" r="50" fill="#0A0A0A"/>
<path d="M75.7267 72.5C76.7061 72.5 77.5232 73.3117 77.2256 74.2448C77.1034 74.6281 76.9408 75.0044 76.7388 75.3701C76.2362 76.2801 75.4997 77.1069 74.5711 77.8033C73.6425 78.4997 72.5401 79.0522 71.3268 79.4291C70.1136 79.806 68.8132 80 67.5 80C66.1868 80 64.8864 79.806 63.6732 79.4291C62.4599 79.0522 61.3575 78.4997 60.4289 77.8033C59.5003 77.1069 58.7638 76.2801 58.2612 75.3701C58.0592 75.0044 57.8966 74.6281 57.7744 74.2448C57.4768 73.3117 58.2939 72.5 59.2733 72.5V72.5C60.2527 72.5 61.0217 73.3325 61.4615 74.2075C61.4859 74.256 61.5114 74.3042 61.5378 74.3522C61.8622 74.9394 62.3375 75.473 62.9368 75.9224C63.536 76.3719 64.2474 76.7284 65.0304 76.9716C65.8134 77.2148 66.6525 77.34 67.5 77.34C68.3475 77.34 69.1866 77.2148 69.9696 76.9716C70.7526 76.7284 71.464 76.3719 72.0632 75.9224C72.6625 75.473 73.1378 74.9394 73.4622 74.3522C73.4886 74.3042 73.5141 74.256 73.5385 74.2075C73.9783 73.3325 74.7473 72.5 75.7267 72.5V72.5Z" fill="#E8E8E8"/>
<path d="M63.5 63.75C64.3284 63.75 65.0178 63.069 64.8209 62.2644C64.7454 61.9559 64.6463 61.653 64.5242 61.3582C64.2102 60.5999 63.7498 59.9109 63.1694 59.3306C62.5891 58.7502 61.9001 58.2898 61.1418 57.9758C60.3835 57.6617 59.5708 57.5 58.75 57.5C57.9292 57.5 57.1165 57.6617 56.3582 57.9758C55.5999 58.2898 54.9109 58.7502 54.3306 59.3306C53.7502 59.9109 53.2898 60.5999 52.9758 61.3582C52.8537 61.653 52.7546 61.9559 52.6791 62.2644C52.4822 63.069 53.1716 63.75 54 63.75L54.2237 63.75C54.9286 63.75 55.4777 63.1575 55.7474 62.5063V62.5063C55.9107 62.112 56.1501 61.7537 56.4519 61.4519C56.7537 61.1501 57.112 60.9107 57.5063 60.7474C57.9006 60.5841 58.3232 60.5 58.75 60.5C59.1768 60.5 59.5994 60.5841 59.9937 60.7474C60.388 60.9107 60.7463 61.1501 61.0481 61.4519C61.3499 61.7537 61.5893 62.112 61.7526 62.5063V62.5063C62.0223 63.1575 62.5714 63.75 63.2763 63.75H63.5Z" fill="#E8E8E8"/>
<path d="M83.5 63.75C84.3284 63.75 85.0178 63.069 84.8209 62.2644C84.7454 61.9559 84.6463 61.653 84.5242 61.3582C84.2102 60.5999 83.7498 59.9109 83.1694 59.3306C82.5891 58.7502 81.9001 58.2898 81.1418 57.9758C80.3835 57.6617 79.5708 57.5 78.75 57.5C77.9292 57.5 77.1165 57.6617 76.3582 57.9758C75.5999 58.2898 74.9109 58.7502 74.3306 59.3306C73.7502 59.9109 73.2898 60.5999 72.9758 61.3582C72.8537 61.653 72.7546 61.9559 72.6791 62.2644C72.4822 63.069 73.1716 63.75 74 63.75L74.2237 63.75C74.9286 63.75 75.4777 63.1575 75.7474 62.5063V62.5063C75.9107 62.112 76.1501 61.7537 76.4519 61.4519C76.7537 61.1501 77.112 60.9107 77.5063 60.7474C77.9006 60.5841 78.3232 60.5 78.75 60.5C79.1768 60.5 79.5994 60.5841 79.9937 60.7474C80.388 60.9107 80.7463 61.1501 81.0481 61.4519C81.3499 61.7537 81.5893 62.112 81.7526 62.5063V62.5063C82.0223 63.1575 82.5714 63.75 83.2763 63.75H83.5Z" fill="#E8E8E8"/>
</svg>
