<svg width="100" height="100" viewBox="0 0 100 100" fill="none" xmlns="http://www.w3.org/2000/svg">
<circle cx="50" cy="50" r="50" fill="#0A0A0A"/>
<circle cx="55.3169" cy="62.8169" r="2.8169" fill="#E8E8E8"/>
<circle cx="77.8169" cy="62.8169" r="2.8169" fill="#E8E8E8"/>
<path d="M75.7267 72.5C76.7061 72.5 77.5232 73.3117 77.2256 74.2448C77.1034 74.6281 76.9408 75.0044 76.7388 75.3701C76.2362 76.2801 75.4997 77.1069 74.5711 77.8033C73.6425 78.4997 72.5401 79.0522 71.3268 79.4291C70.1136 79.806 68.8132 80 67.5 80C66.1868 80 64.8864 79.806 63.6732 79.4291C62.4599 79.0522 61.3575 78.4997 60.4289 77.8033C59.5003 77.1069 58.7638 76.2801 58.2612 75.3701C58.0592 75.0044 57.8966 74.6281 57.7744 74.2448C57.4768 73.3117 58.2939 72.5 59.2733 72.5V72.5C60.2527 72.5 61.0217 73.3325 61.4615 74.2075C61.4859 74.256 61.5114 74.3042 61.5378 74.3522C61.8622 74.9394 62.3375 75.473 62.9368 75.9224C63.536 76.3719 64.2474 76.7284 65.0304 76.9716C65.8134 77.2148 66.6525 77.34 67.5 77.34C68.3475 77.34 69.1866 77.2148 69.9696 76.9716C70.7526 76.7284 71.464 76.3719 72.0632 75.9224C72.6625 75.473 73.1378 74.9394 73.4622 74.3522C73.4886 74.3042 73.5141 74.256 73.5385 74.2075C73.9783 73.3325 74.7473 72.5 75.7267 72.5V72.5Z" fill="#E8E8E8"/>
</svg>
